<?xml version="1.0" standalone="no"?>
<!DOCTYPE svg PUBLIC "-//W3C//DTD SVG 20010904//EN"
 "http://www.w3.org/TR/2001/REC-SVG-20010904/DTD/svg10.dtd">
<svg version="1.0" xmlns="http://www.w3.org/2000/svg"
 width="1000.000000pt" height="1000.000000pt" viewBox="0 0 1000.000000 1000.000000"
 preserveAspectRatio="xMidYMid meet">

<g transform="translate(0.000000,1000.000000) scale(0.100000,-0.100000)"
fill="#000000" stroke="none">
<path d="M3203 7036 c-60 -19 -104 -49 -157 -106 -74 -79 -91 -125 -91 -250 0
-178 -52 -115 785 -954 l727 -728 -727 -727 c-836 -837 -785 -775 -785 -951 0
-94 3 -111 27 -160 92 -188 311 -264 505 -175 51 23 142 109 785 753 l728 727
727 -726 c789 -787 771 -771 897 -788 252 -34 459 173 425 425 -17 126 -1 108
-788 897 l-726 727 727 728 c644 643 730 734 753 785 89 194 13 413 -175 505
-49 24 -66 27 -160 27 -176 0 -114 51 -950 -785 l-727 -728 -729 728 c-828
826 -777 783 -939 787 -55 2 -106 -3 -132 -11z"/>
<path d="M270 2345 l0 -25 -20 20 c-11 11 -33 20 -50 20 -23 0 -31 -5 -36 -24
-6 -25 1 -46 15 -46 4 0 7 10 7 23 -1 32 34 34 64 2 32 -34 40 -32 40 15 0 22
-4 40 -10 40 -5 0 -10 -11 -10 -25z"/>
<path d="M235 2260 c-3 -5 -19 -7 -35 -4 -25 6 -30 3 -36 -21 -4 -15 -2 -31 5
-38 15 -15 92 -18 108 -5 18 14 16 43 -3 62 -18 18 -30 20 -39 6z m-27 -37
c-4 -22 -22 -20 -26 1 -2 10 3 16 13 16 10 0 15 -7 13 -17z m60 0 c-2 -10 -10
-18 -18 -18 -8 0 -16 8 -18 18 -2 12 3 17 18 17 15 0 20 -5 18 -17z"/>
<path d="M175 2144 c-20 -20 -16 -53 8 -68 22 -14 49 2 57 34 l5 23 12 -27
c13 -26 33 -36 33 -15 0 18 -57 69 -79 69 -11 0 -27 -7 -36 -16z m42 -38 c-4
-9 -11 -16 -17 -16 -17 0 -24 31 -9 41 18 11 34 -5 26 -25z"/>
<path d="M222 2038 c-5 -7 -12 -22 -14 -33 -4 -18 -6 -17 -18 8 -14 30 -33 38
-23 10 11 -31 46 -63 69 -63 27 0 54 25 54 49 0 35 -46 55 -68 29z m43 -34 c0
-10 -8 -20 -17 -22 -18 -3 -26 27 -11 42 12 11 28 0 28 -20z"/>
<path d="M236 1933 c-4 -5 -19 -8 -33 -8 -32 0 -52 -28 -37 -52 12 -20 92 -27
111 -11 18 14 16 43 -3 62 -17 18 -27 20 -38 9z m-28 -40 c-4 -22 -22 -20 -26
1 -2 10 3 16 13 16 10 0 15 -7 13 -17z m60 0 c-2 -10 -10 -18 -18 -18 -8 0
-16 8 -18 18 -2 12 3 17 18 17 15 0 20 -5 18 -17z"/>
<path d="M176 1814 c-19 -18 -20 -28 -6 -55 19 -35 70 -17 70 26 1 17 3 16 16
-7 15 -28 34 -37 34 -17 0 18 -57 69 -79 69 -11 0 -27 -7 -35 -16z m41 -38
c-4 -9 -11 -16 -17 -16 -17 0 -24 31 -9 41 18 11 34 -5 26 -25z"/>
<path d="M160 1685 c0 -25 5 -45 10 -45 6 0 10 14 10 30 0 17 2 30 4 30 2 0
25 -9 51 -20 53 -23 55 -23 55 -11 0 7 -108 61 -124 61 -3 0 -6 -20 -6 -45z"/>
<path d="M176 1614 c-21 -20 -20 -37 2 -57 35 -32 112 -13 112 27 0 40 -83 62
-114 30z m78 -10 c24 -9 19 -33 -8 -40 -31 -7 -66 3 -66 21 0 21 41 32 74 19z"/>
<path d="M160 1502 c0 -5 7 -17 15 -28 17 -22 20 -38 5 -29 -5 3 -10 2 -10 -4
0 -5 6 -12 13 -15 9 -5 9 -7 0 -12 -10 -4 -9 -9 2 -20 8 -9 20 -12 26 -8 6 3
14 1 18 -5 5 -8 15 -9 31 -3 19 7 21 10 7 15 -23 9 -22 28 1 20 12 -4 11 0 -7
17 -15 15 -25 19 -30 12 -5 -8 -13 -5 -24 8 -27 32 -20 40 33 40 28 0 50 5 50
10 0 6 -28 10 -65 10 -36 0 -65 -4 -65 -8z m70 -92 c0 -5 -4 -10 -10 -10 -5 0
-10 5 -10 10 0 6 5 10 10 10 6 0 10 -4 10 -10z"/>
<path d="M140 1280 c0 -6 38 -10 95 -10 57 0 95 4 95 10 0 6 -38 10 -95 10
-57 0 -95 -4 -95 -10z"/>
<path d="M261 1189 c-22 -18 -25 -19 -42 -3 -11 10 -22 14 -27 10 -4 -4 4 -16
17 -27 l23 -19 -46 0 c-34 0 -46 -4 -46 -15 0 -12 15 -15 75 -15 60 0 75 3 75
15 0 9 -9 15 -22 15 l-23 0 24 19 c13 10 22 23 20 29 -2 6 -14 3 -28 -9z"/>
<path d="M190 1084 c0 -32 20 -54 50 -54 30 0 50 22 50 54 0 25 -17 18 -24
-10 -9 -33 -49 -31 -54 4 -4 25 -22 31 -22 6z"/>
<path d="M206 994 c-19 -18 -20 -28 -6 -55 21 -39 90 -16 90 30 0 16 -30 41
-50 41 -10 0 -26 -7 -34 -16z m59 -29 c0 -22 -31 -33 -47 -17 -17 17 -1 44 24
40 15 -2 23 -10 23 -23z"/>
<path d="M190 900 c0 -5 -7 -10 -15 -10 -8 0 -15 -4 -15 -10 0 -5 6 -10 14
-10 8 0 17 -6 20 -12 5 -10 7 -10 12 0 3 6 21 12 40 12 34 0 56 22 39 38 -4 4
-10 1 -12 -5 -5 -15 -63 -18 -63 -3 0 6 -4 10 -10 10 -5 0 -10 -4 -10 -10z"/>
<path d="M212 810 c-19 -34 -35 -34 -40 -2 -4 29 -22 28 -22 -1 0 -52 52 -63
78 -17 20 35 37 34 37 -4 -1 -31 19 -29 23 3 8 53 -49 69 -76 21z"/>
<path d="M200 675 c-22 -26 3 -65 40 -65 35 0 58 36 45 67 -7 16 -9 15 -13 -7
-6 -40 -22 -48 -22 -12 0 25 -4 32 -19 32 -10 0 -24 -7 -31 -15z m30 -26 c0
-11 -4 -17 -10 -14 -5 3 -10 13 -10 21 0 8 5 14 10 14 6 0 10 -9 10 -21z"/>
<path d="M202 578 c-7 -7 -12 -20 -12 -30 0 -13 -8 -18 -25 -18 -16 0 -25 -6
-25 -15 0 -13 13 -15 73 -13 67 3 72 5 75 26 7 46 -55 81 -86 50z m56 -20 c19
-19 14 -28 -18 -28 -18 0 -30 5 -30 13 0 28 27 36 48 15z"/>
<path d="M199 459 c-18 -34 3 -69 40 -69 45 0 66 44 35 74 -22 23 -61 20 -75
-5z m66 -24 c0 -22 -31 -33 -47 -17 -17 17 -1 44 24 40 15 -2 23 -10 23 -23z"/>
<path d="M150 362 c-19 -7 -10 -22 14 -22 17 0 26 -7 30 -25 7 -26 43 -42 71
-32 18 8 31 55 18 68 -10 10 -111 18 -133 11z m118 -39 c-2 -12 -12 -18 -28
-18 -16 0 -26 6 -28 18 -3 13 3 17 28 17 25 0 31 -4 28 -17z"/>
<path d="M220 246 c-36 -13 -66 -29 -68 -37 -1 -9 20 -21 68 -35 38 -12 70
-17 70 -12 0 6 -9 12 -20 15 -13 4 -20 14 -20 30 0 16 7 27 20 30 11 3 20 12
20 19 0 8 -1 14 -2 13 -2 0 -32 -11 -68 -23z m10 -35 c0 -14 -6 -17 -25 -13
-31 5 -32 19 -2 25 12 2 23 5 25 6 1 0 2 -7 2 -18z"/>
</g>
</svg>
